<?xml version="1.0" encoding="utf-8"?>
<svg xmlns="http://www.w3.org/2000/svg" viewBox="0 0 500 500" xmlns:bx="https://boxy-svg.com" width="500px" height="500px"><defs><style bx:fonts="Barlow Semi Condensed">@import url(https://fonts.googleapis.com/css2?family=Barlow+Semi+Condensed%3Aital%2Cwght%400%2C100%3B0%2C200%3B0%2C300%3B0%2C400%3B0%2C500%3B0%2C600%3B0%2C700%3B0%2C800%3B0%2C900%3B1%2C100%3B1%2C200%3B1%2C300%3B1%2C400%3B1%2C500%3B1%2C600%3B1%2C700%3B1%2C800%3B1%2C900&amp;display=swap);</style><linearGradient gradientUnits="userSpaceOnUse" x1="108.025" y1="27.056" x2="108.025" y2="288.318" id="gradient-0" gradientTransform="matrix(0.999941, 0.010874, -0.011691, 1.075077, -2.591452, -9.941406)"><stop offset="0" style="stop-color: rgb(201, 69, 29);"/><stop offset="1" style="stop-color: rgb(189, 54, 19);"/></linearGradient><linearGradient gradientUnits="userSpaceOnUse" x1="149.942" y1="114.908" x2="149.942" y2="287.979" id="gradient-1" gradientTransform="matrix(0.867682, 0.497126, -0.505013, 0.881462, 123.624541, -59.889003)"><stop offset="0" style="stop-color: rgb(215, 85, 30);"/><stop offset="1" style="stop-color: rgb(197, 141, 65);"/></linearGradient><bx:export><bx:file format="svg"/></bx:export></defs><path style="pointer-events: none; fill: url(&quot;#gradient-1&quot;);" d="M 173.493 114.407 C 182.957 116.936 200.74 162.054 185.63 204.735 C 183.281 211.371 172.598 251.13 126.878 287.979 C 115.495 283.161 108.791 265.745 107.504 246.104 C 105.598 217.02 152.773 169.978 153.553 168.629 C 174.299 150.549 173.12 116.02 173.493 114.407 Z"/><path style="paint-order: fill; pointer-events: none; fill: url(&quot;#gradient-0&quot;);" d="M 52.617 199.205 C 54.341 230.058 119.359 292.009 126.59 288.145 C 104.524 272.371 103.956 209.815 109.67 199.75 C 134.43 139.982 149.151 156.938 161.18 104.399 C 173.209 51.86 139.62 27.056 139.817 27.056 C 139.817 27.056 136.156 62.028 95.142 102.744 C 54.128 143.46 50.893 168.352 52.617 199.205 Z"/><text style="fill: rgb(237, 228, 211); font-family: &quot;Barlow Semi Condensed&quot;; font-size: 140.7px; font-weight: 700; text-transform: capitalize; white-space: pre;" x="65.252" y="403.288">IGNITE</text><text style="fill: rgb(237, 228, 211); font-family: &quot;Barlow Semi Condensed&quot;; font-size: 53.9px; font-weight: 500; white-space: pre;" x="68.625" y="461.349">BUSINESS LOANS</text></svg>